<?xml version="1.0" standalone="no"?><!DOCTYPE svg PUBLIC "-//W3C//DTD SVG 1.1//EN" "http://www.w3.org/Graphics/SVG/1.1/DTD/svg11.dtd"><svg t="1733125441322" class="icon" viewBox="0 0 1024 1024" version="1.1" xmlns="http://www.w3.org/2000/svg" p-id="5251" xmlns:xlink="http://www.w3.org/1999/xlink" width="200" height="200"><path d="M421.2537 496.033163a239.12098 239.12098 0 0 0 47.804997-4.767701 236.145167 236.145167 0 0 0 45.981112-14.079115 243.984675 243.984675 0 0 0 95.641993-71.80349 245.264594 245.264594 0 0 0 20.766695-29.822127 250.576261 250.576261 0 0 0 16.190983-32.605952 251.184222 251.184222 0 0 0 15.998995-131.287753 264.239402 264.239402 0 0 0-7.871505-35.613763 269.103097 269.103097 0 0 0-12.991184-34.013864 250.416271 250.416271 0 0 0-24.702449-41.725379 265.839302 265.839302 0 0 0-23.55052-27.646263 261.423579 261.423579 0 0 0-27.294286-23.838503 242.928741 242.928741 0 0 0-41.181413-24.958432 233.55333 233.55333 0 0 0-33.661886-13.119176 235.825187 235.825187 0 0 0-47.101041-9.503403A262.703499 262.703499 0 0 0 421.2537 0.064316a240.304906 240.304906 0 0 0-71.099534 10.687329 230.513521 230.513521 0 0 0-33.661886 13.119176c-3.647771 1.759889-7.231546 3.551777-10.751324 5.439658a270.702996 270.702996 0 0 0-30.430089 19.550772 243.152727 243.152727 0 0 0-43.453271 41.917367 230.129545 230.129545 0 0 0-14.367097 19.518774 251.248218 251.248218 0 0 0-36.573703 89.370386 274.254773 274.254773 0 0 0-3.519779 24.062489 248.976361 248.976361 0 0 0 13.151174 107.897223 249.904303 249.904303 0 0 0 49.148913 82.970788c2.687831 3.007811 5.439658 5.951626 8.319477 8.831445a246.000548 246.000548 0 0 0 102.137585 61.980107 260.079664 260.079664 0 0 0 35.133793 7.999498 240.336904 240.336904 0 0 0 35.965741 2.687831V496.033163z m0 82.650808c33.949868 0 67.867737 1.983875 100.473689 5.919629 20.574708 2.527841 31.486022 25.598392 21.02268 43.677256l-83.898731 145.590855c-5.535652 9.599397-5.439658 21.502649 0.31998 30.974055l85.434634 141.175132a30.526083 30.526083 0 0 1 0.543966 30.526083 29.758131 29.758131 0 0 1-26.014366 15.455029H29.246323a28.638201 28.638201 0 0 1-20.990682-8.735451 29.342157 29.342157 0 0 1-8.191485-21.438654c10.943313-252.97611 161.74984-383.143934 421.221542-383.143934h-0.031998z m278.862484 0h177.460853a59.516262 59.516262 0 0 1 51.196784 29.310159l86.714554 146.294811a61.020167 61.020167 0 0 1 0 62.140097l-86.714554 146.230815a59.516262 59.516262 0 0 1-51.196784 29.342157h-177.460853a59.516262 59.516262 0 0 1-51.196784-29.310159l-86.714553-146.262813a61.020167 61.020167 0 0 1 0-62.140097l86.714553-146.294811a59.516262 59.516262 0 0 1 51.196784-29.310159z m7.039558 206.675019c0.127992 45.597136 36.605701 82.522817 81.658871 82.650808 45.085168-0.127992 81.594875-37.053673 81.722866-82.650808-0.127992-45.629134-36.637699-82.554815-81.722866-82.682807-45.05317 0.127992-81.562877 37.053673-81.658871 82.682807z" fill="#32C8DA" p-id="5252"></path></svg>