<?xml version="1.0" standalone="no"?><!DOCTYPE svg PUBLIC "-//W3C//DTD SVG 1.1//EN" "http://www.w3.org/Graphics/SVG/1.1/DTD/svg11.dtd"><svg t="1733125414151" class="icon" viewBox="0 0 1280 1024" version="1.1" xmlns="http://www.w3.org/2000/svg" p-id="4263" xmlns:xlink="http://www.w3.org/1999/xlink" width="250" height="200"><path d="M583.509333 459.093333a257.450667 257.450667 0 0 0 97.109334-201.557333A257.28 257.28 0 0 0 424.106667 0a257.28 257.28 0 0 0-256.341334 257.536c0 82.517333 38.912 155.818667 99.072 203.093333A429.738667 429.738667 0 0 0 0 858.112v44.629333c0 23.722667 19.114667 42.922667 42.666667 42.922667h769.194666c23.552 0 42.666667-19.2 42.666667-42.922667v-44.629333A429.653333 429.653333 0 0 0 583.509333 459.093333zM275.626667 257.536c0-82.346667 66.645333-149.333333 148.565333-149.333333 81.92 0 148.650667 66.986667 148.650667 149.333333 0 81.322667-65.024 147.370667-145.578667 148.992h-0.341333l-3.925334 0.170667A148.992 148.992 0 0 1 275.626667 257.536zM131.925333 836.437333v-1.450666c0-162.133333 130.048-294.058667 290.816-296.448h1.877334l4.522666-0.170667a296.362667 296.362667 0 0 1 293.546667 296.618667l-590.762667 1.450666zM1217.365333 85.333333v123.733334H768V85.333333h449.365333zM768 341.333333h449.365333v123.733334H768V341.333333z m152.064 261.802667h297.557333v123.733333h-297.557333v-123.733333z" fill="#4FB495" p-id="4264"></path></svg>