<?xml version="1.0" standalone="no"?><!DOCTYPE svg PUBLIC "-//W3C//DTD SVG 1.1//EN" "http://www.w3.org/Graphics/SVG/1.1/DTD/svg11.dtd"><svg t="1733125477540" class="icon" viewBox="0 0 1024 1024" version="1.1" xmlns="http://www.w3.org/2000/svg" p-id="6248" xmlns:xlink="http://www.w3.org/1999/xlink" width="200" height="200"><path d="M517.44768 389.28384c21.17632 13.18912 47.02208 30.9248 71.10656 48.00512 47.59552 33.83296 230.23616 20.76672 304.78336 26.8288 74.50624 6.06208 130.74432 22.528 130.74432 22.528l-103.87456-172.35968s112.51712-168.91904 98.63168-165.39648c-13.63968 3.4816-83.92704 5.16096-129.88416-7.74144-45.79328-12.94336-151.47008-13.84448-223.39584-13.84448-53.37088 0-118.21056-45.8752-148.0704-69.4272V0h-84.09088v897.2288h84.04992V389.28384z m0 0" p-id="6249" fill="#1296db"></path><path d="M635.41248 700.98944v63.24224c120.05376 16.09728 202.87488 50.42176 202.87488 90.35776 0 55.296-159.04768 100.10624-355.20512 100.10624-196.07552 0-355.1232-44.8512-355.1232-100.10624 0-39.03488 79.70816-72.86784 195.66592-89.37472v-63.44704C135.168 723.84512 0 784.05632 0 854.58944c0 89.57952 216.22784 161.9968 483.04128 161.9968 266.8544 0 483.04128-72.45824 483.04128-161.9968-0.04096-71.4752-138.6496-132.25984-330.67008-153.6z m0 0" p-id="6250" fill="#1296db"></path></svg>