<?xml version="1.0" standalone="no"?><!DOCTYPE svg PUBLIC "-//W3C//DTD SVG 1.1//EN" "http://www.w3.org/Graphics/SVG/1.1/DTD/svg11.dtd"><svg t="1733125514906" class="icon" viewBox="0 0 1026 1024" version="1.1" xmlns="http://www.w3.org/2000/svg" p-id="7496" xmlns:xlink="http://www.w3.org/1999/xlink" width="200.390625" height="200"><path d="M268.725386 660.912259c-20.478971 30.253026-46.543117 105.885591-66.556657 171.27867H33.44993A30.718457 30.718457 0 0 1 1.800611 791.232986a38.165356 38.165356 0 0 1 5.119743-15.126513c15.359229-60.506052 46.543117-171.511385 66.556657-201.764412A144.050947 144.050947 0 0 1 180.991611 518.955752H257.787753s93.086234-5.119743 127.993572 55.386309a5.119743 5.119743 0 0 0 5.119742 5.119743 201.997127 201.997127 0 0 0-122.873828 80.752308z m25.598714-206.884155a132.647883 132.647883 0 0 1-61.436914 10.006771 149.636121 149.636121 0 0 1-153.35957-151.26513 149.636121 149.636121 0 0 1 153.35957-151.26513 143.818231 143.818231 0 0 1 93.086234 30.253026 230.621144 230.621144 0 0 0-56.317172 151.26513 271.346371 271.346371 0 0 0 25.598714 111.005333z m695.586881 378.162825h-168.718799a949.246867 949.246867 0 0 0-66.556657-166.391643 169.416945 169.416945 0 0 0-117.52137-80.519592c0-5.119743 5.119743-5.119743 5.119743-10.239486a143.3528 143.3528 0 0 1 107.281884-55.386309h76.796143s93.086234-5.119743 127.760856 55.386309C979.206064 605.060519 1015.509695 731.425081 1025.749181 781.924362v9.308624a35.8382 35.8382 0 0 1-35.8382 40.259796z m-194.317513-368.156054a255.987142 255.987142 0 0 1-61.436914-10.006771 248.307528 248.307528 0 0 0 25.598714-104.954728 230.621144 230.621144 0 0 0-56.317171-151.26513 143.818231 143.818231 0 0 1 93.086233-30.253025 149.403405 149.403405 0 0 1 153.35957 151.265129 151.730561 151.730561 0 0 1-153.35957 146.145387zM775.114497 1023.94857H257.787753a40.259796 40.259796 0 0 1-40.957942-50.499282 78.657867 78.657867 0 0 1 5.817889-19.315393c20.478971-75.632565 61.436914-227.13041 87.035629-267.390206a172.674963 172.674963 0 0 1 143.120084-69.814676h97.275114s122.641113-5.119743 162.900909 75.632565c30.718457 40.259796 81.915886 201.764411 97.275114 272.277234v10.00677A37.234493 37.234493 0 0 1 775.114497 1023.94857zM513.774896 544.787182A196.644669 196.644669 0 1 1 713.677583 349.073376 198.273678 198.273678 0 0 1 513.774896 544.787182z m0 0" fill="#1afa29" p-id="7497"></path></svg>