<?xml version="1.0" standalone="no"?><!DOCTYPE svg PUBLIC "-//W3C//DTD SVG 1.1//EN" "http://www.w3.org/Graphics/SVG/1.1/DTD/svg11.dtd"><svg t="1733375380402" class="icon" viewBox="0 0 1024 1024" version="1.1" xmlns="http://www.w3.org/2000/svg" p-id="6216" xmlns:xlink="http://www.w3.org/1999/xlink" width="200" height="200"><path d="M950.848 585.152c40.384 0 73.152 32.768 73.152 73.152v292.544c0 40.384-32.768 73.152-73.152 73.152h-292.544a73.152 73.152 0 0 1-73.152-73.152v-292.544c0-40.384 32.768-73.152 73.152-73.152h292.544z m-585.152 0c40.384 0 73.152 32.768 73.152 73.152v292.544c0 40.384-32.768 73.152-73.152 73.152H73.152A73.152 73.152 0 0 1 0 950.848v-292.544c0-40.384 32.768-73.152 73.152-73.152h292.544z m548.608 73.152h-219.456a36.544 36.544 0 0 0-36.544 35.968V914.304c0 19.968 16 36.224 35.968 36.544H914.304c19.968 0 36.224-16 36.544-35.968V694.848a36.544 36.544 0 0 0-35.968-36.544h-0.64z m-584 0H110.848a36.544 36.544 0 0 0-36.544 35.968V914.304c0 19.968 16 36.224 35.968 36.544H330.24c19.968 0 36.224-16 36.544-35.968V694.848a36.544 36.544 0 0 0-35.968-36.544h-0.64zM365.696 0c40.384 0 73.152 32.768 73.152 73.152v292.544c0 40.384-32.768 73.152-73.152 73.152H73.152A73.152 73.152 0 0 1 0 365.696V73.152C0 32.768 32.768 0 73.152 0h292.544z m585.152 0C991.232 0 1024 32.768 1024 73.152v292.544c0 40.384-32.768 73.152-73.152 73.152h-292.544a73.152 73.152 0 0 1-73.152-73.152V73.152C585.152 32.768 617.92 0 658.304 0h292.544zM329.152 73.152H109.696a36.544 36.544 0 0 0-36.544 35.968V329.152c0 19.968 16 36.224 35.968 36.544H329.152c19.968 0 36.224-16 36.544-35.968V109.696a36.544 36.544 0 0 0-35.968-36.544h-0.64z m585.152 0h-219.456a36.544 36.544 0 0 0-36.544 35.968V329.152c0 19.968 16 36.224 35.968 36.544H914.304c19.968 0 36.224-16 36.544-35.968V109.696a36.544 36.544 0 0 0-35.968-36.544h-0.64z" fill="#d81e06" p-id="6217"></path></svg>