<?xml version="1.0" standalone="no"?><!DOCTYPE svg PUBLIC "-//W3C//DTD SVG 1.1//EN" "http://www.w3.org/Graphics/SVG/1.1/DTD/svg11.dtd"><svg t="1733221862033" class="icon" viewBox="0 0 1024 1024" version="1.1" xmlns="http://www.w3.org/2000/svg" p-id="6508" xmlns:xlink="http://www.w3.org/1999/xlink" width="200" height="200"><path d="M954.402698 788.352705l-331.742411 191.484621a44.172709 44.172709 0 0 1-66.298806-38.19161V623.484973a43.815035 43.815035 0 0 1 22.185709-38.191609l331.732475-191.524362a44.172709 44.172709 0 0 1 66.308741 38.201544V750.121354a44.262128 44.262128 0 0 1-22.185708 38.231351z m-884.785525 0A44.152838 44.152838 0 0 1 47.411594 750.121354V431.970546a44.172709 44.172709 0 0 1 22.09629-38.271092 44.182645 44.182645 0 0 1 44.212451 0.069548L445.442875 585.293364a43.815035 43.815035 0 0 1 22.195644 38.191609v318.160743a44.152838 44.152838 0 1 1-66.298806 38.19161L69.617173 788.352705z m420.445503-774.860456a44.778767 44.778767 0 0 1 43.884583 0L909.296062 227.917667a44.222386 44.222386 0 0 1 0 76.889923L533.947259 519.242943a43.596457 43.596457 0 0 1-43.884583 0l-375.358738-214.435353a44.242257 44.242257 0 0 1 0-76.889923l375.358738-214.395612v-0.029806z m0 0" p-id="6509" fill="#f4ea2a"></path></svg>