<?xml version="1.0" standalone="no"?><!DOCTYPE svg PUBLIC "-//W3C//DTD SVG 1.1//EN" "http://www.w3.org/Graphics/SVG/1.1/DTD/svg11.dtd"><svg t="1733536408798" class="icon" viewBox="0 0 1024 1024" version="1.1" xmlns="http://www.w3.org/2000/svg" p-id="6772" xmlns:xlink="http://www.w3.org/1999/xlink" width="200" height="200"><path d="M512.085333 0c153.045333 0 303.658667 52.736 451.114667 157.184l17.664 12.501333 0.298667 21.674667c2.858667 184.32-34.304 348.032-111.786667 490.368-78.208 143.744-191.744 249.770667-339.626667 317.098667l-16.981333 7.722666-17.194667-7.210666c-147.328-61.824-261.333333-168.277333-340.992-317.952C75.946667 533.589333 38.826667 369.92 43.008 190.976l0.469333-21.418667 17.493334-12.373333C208.426667 52.736 359.04 0 512.085333 0z m0 85.333333c-123.264 0-245.845333 39.338667-368.384 118.826667L128 214.528v0.853333c-0.426667 148.266667 30.421333 283.904 92.373333 407.466667l9.557334 18.432C294.826667 763.306667 384 851.498667 498.218667 906.922667l13.226666 6.186666 15.061334-7.552c110.037333-57.045333 196.181333-139.776 259.114666-248.874666l8.832-15.744c67.072-123.306667 101.034667-265.173333 101.546667-426.24l-0.170667-21.162667 0.128 20.906667-15.530666-10.282667c-116.906667-75.861333-233.941333-115.2-351.573334-118.613333L512.128 85.333333zM240.810667 411.008a213.333333 213.333333 0 0 1 141.781333 303.616l-12.032-6.698667a277.333333 277.333333 0 0 1-17.92-11.605333l-7.296-5.333333-1.664-1.237334-1.493333-1.194666-5.845334-4.650667-3.84-3.157333a278.528 278.528 0 0 1-18.730666-17.493334l-1.28-1.28a128.042667 128.042667 0 0 0-76.288-163.456A274.474667 274.474667 0 0 1 234.666667 469.333333l0.298666-13.312a280.405333 280.405333 0 0 1 2.048-23.04l1.450667-9.728 2.346667-12.245333z m542.378666 0l2.346667 12.245333a276.736 276.736 0 0 1 2.858667 23.082667l0.64 9.685333 0.298666 12.288V469.333333c0 9.045333-0.426667 17.92-1.28 26.752l-0.256 2.432a128 128 0 0 0-76.288 163.413334 276.821333 276.821333 0 0 1-37.546666 32.554666l-7.253334 4.992-2.090666 1.408-8.96 5.717334-1.493334 0.853333-2.645333 1.578667-8.789333 4.949333-1.237334 0.64a213.418667 213.418667 0 0 1 136.661334-302.464l5.034666-1.152zM416.554667 208.853333l8.661333-2.986666-1.408 0.469333 3.157333-1.066667 5.632-1.706666 2.218667-0.682667-4.864 1.450667 7.893333-2.304-0.853333 0.213333 1.28-0.341333-0.128 0.042666 3.285333-0.853333 12.202667-2.944 11.264-2.133333 5.973333-0.981334 5.973334-0.853333 1.365333-0.128c11.648 7.893333 22.912 16.213333 33.834667 24.96 7.637333-6.101333 15.402667-12.032 23.381333-17.706667l10.453333-7.253333c4.608 0.554667 9.173333 1.237333 13.738667 2.005333l13.226667 2.645334 13.056 3.242666c8.106667 2.261333 16.085333 4.864 23.893333 7.765334l10.197333 4.138666 2.261334 0.938667 0.384 0.170667 7.936 3.584 3.456 1.706666 4.949333 2.474667 0.64 0.341333-0.298667-0.170666-0.341333-0.170667-1.194667-0.64 1.28 0.682667 0.256 0.128 0.682667 0.341333 1.365333 0.725333-0.810666-0.426666L640 223.232l-0.384-0.170667 0.938667 0.469334 5.418666 2.901333-4.608-2.474667c3.584 1.92 7.168 3.882667 10.666667 5.973334l1.706667 0.981333c-11.093333 5.12-22.016 10.709333-32.64 16.768l-0.853334 0.512a413.44 413.44 0 0 0-15.786666 9.472l-0.512 0.341333a427.306667 427.306667 0 0 0-91.989334 78.506667 425.173333 425.173333 0 0 0-63.146666-58.624l-3.029334-2.176-4.266666-3.114667-2.517334-1.792-5.461333-3.84a414.421333 414.421333 0 0 0-29.696-18.773333l-0.981333-0.512a418.048 418.048 0 0 0-31.914667-16.469333l-0.682667-0.298667 10.666667-6.058667 7.125333-3.669333 1.493334-0.768 3.882666-1.877333-0.938666 0.426666 4.778666-2.218666 0.981334-0.426667 1.408-0.597333 1.237333-0.597334 1.749333-0.725333 4.949334-2.090667 3.626666-1.450666-3.584 1.450666 4.309334-1.706666 4.608-1.749334 3.157333-1.109333 3.072-1.109333-6.229333 2.218666zM291.925333 300.544l1.706667-2.218667 0.938667-1.152 1.578666-2.005333a279.04 279.04 0 0 1 15.573334-17.664l0.981333-1.024A364.245333 364.245333 0 0 1 512 447.872a363.818667 363.818667 0 0 1 196.693333-170.368l2.602667-1.024c6.4 6.613333 12.458667 13.525333 18.133333 20.650667l1.877334 2.432 0.768 0.981333 1.152 1.536c1.28 1.621333 2.474667 3.328 3.712 4.992l7.125333 10.325333 6.656 10.666667c4.224 7.125333 8.149333 14.506667 11.776 22.058667A277.504 277.504 0 0 0 555.477333 597.333333H554.666667v146.048a279.466667 279.466667 0 0 1-85.333334 0V597.333333h-0.810666A277.504 277.504 0 0 0 261.546667 350.122667l5.632-11.221334 1.322666-2.432 0.128-0.256 0.554667-0.981333 3.2-5.674667 1.792-2.944 7.253333-11.52 7.210667-10.197333 0.64-0.853333 1.493333-1.962667 1.706667-2.304-0.554667 0.768z" fill="#E1251B" p-id="6773"></path></svg>