<?xml version="1.0" standalone="no"?><!DOCTYPE svg PUBLIC "-//W3C//DTD SVG 1.1//EN" "http://www.w3.org/Graphics/SVG/1.1/DTD/svg11.dtd"><svg t="1733536385760" class="icon" viewBox="0 0 1024 1024" version="1.1" xmlns="http://www.w3.org/2000/svg" p-id="5779" xmlns:xlink="http://www.w3.org/1999/xlink" width="200" height="200"><path d="M511.093 1000.818c-269.264 0-488.429-219.166-488.429-488.429 0-269.393 219.036-488.429 488.429-488.429 269.393 0 488.558 219.166 488.558 488.429s-219.166 488.429-488.558 488.429zM511.093 75.223c-240.914 0-437.037 195.993-437.037 437.037s195.993 437.037 437.037 437.037c241.043 0 437.165-196.123 437.165-437.037-0.13-240.914-196.123-437.037-437.165-437.037z" fill="#1296db" p-id="5780"></path><path d="M795.374 663.59h-22.654c-2.071-7.378-5.049-14.499-8.803-21.23l16.053-16.053c1.423-1.423 2.201-3.365 2.201-5.308s-0.778-3.884-2.201-5.308l-25.89-25.89c-1.423-1.423-3.365-2.201-5.308-2.201s-3.884 0.778-5.308 2.201l-16.053 16.053c-6.732-3.754-13.852-6.732-21.23-8.803v-22.654c0-4.143-3.365-7.508-7.508-7.508h-36.636c-4.143 0-7.508 3.365-7.508 7.508v22.654c-7.378 2.071-14.499 5.049-21.23 8.803l-16.053-16.053c-1.423-1.423-3.365-2.201-5.308-2.201s-3.884 0.778-5.308 2.201l-25.89 25.89c-2.848 2.977-2.848 7.767 0 10.615l16.053 16.053c-3.754 6.732-6.732 13.852-8.803 21.23h-22.914c-4.143 0-7.508 3.365-7.508 7.508v36.636c0 4.143 3.365 7.508 7.508 7.508h22.654c2.071 7.378 5.049 14.499 8.803 21.23l-16.053 16.053c-2.848 2.977-2.848 7.767 0 10.745l25.89 25.89c1.423 1.423 3.365 2.201 5.308 2.201s3.884-0.778 5.308-2.201l16.053-16.053c6.732 3.754 13.852 6.732 21.23 8.803v22.784c0 4.143 3.365 7.508 7.508 7.508h36.636c4.143 0 7.508-3.365 7.508-7.508v-22.784c7.378-2.071 14.499-5.049 21.23-8.803l16.053 16.053c1.423 1.423 3.365 2.201 5.308 2.201s3.884-0.778 5.308-2.201l25.89-25.89c1.423-1.423 2.201-3.365 2.201-5.308s-0.778-3.884-2.201-5.308l-16.053-16.053c3.754-6.732 6.732-13.852 8.803-21.23h22.654c4.143 0 7.508-3.365 7.508-7.508v-36.636c0.258-4.272-3.107-7.638-7.249-7.638zM744.629 707.476c-1.423 5.178-3.495 10.227-6.083 14.758l-9.191 16.311-16.311 9.191c-4.66 2.589-9.709 4.66-14.758 6.083l-17.994 5.049-17.994-5.049c-5.178-1.423-10.227-3.495-14.758-6.083l-16.311-9.191-9.191-16.311c-2.589-4.53-4.66-9.579-6.083-14.758l-5.049-17.994 5.049-17.994c1.423-5.178 3.495-10.227 6.083-14.758l9.191-16.311 16.311-9.191c4.66-2.589 9.579-4.66 14.758-6.083l17.994-5.049 17.994 5.049c5.178 1.423 10.227 3.495 14.758 6.083l16.311 9.191 9.191 16.311c2.589 4.66 4.66 9.709 6.083 14.758l5.049 17.994-5.049 17.994z" fill="#1296db" p-id="5781"></path><path d="M438.599 337.626h115.602c23.949 0 43.366-19.419 43.366-43.366v-7.249c0-23.949-19.419-43.366-43.366-43.366h-115.602c-23.949 0-43.366 19.419-43.366 43.366v7.249c0.13 23.949 19.419 43.366 43.366 43.366z" fill="#1296db" p-id="5782"></path><path d="M530.512 632.651h-143.953v-28.869h158.97c27.055-40.39 73.012-67.057 125.311-67.057 14.369 0 28.221 2.071 41.425 5.825v-189.391c0-23.69-17.865-42.85-40.001-42.85h-48.933c-7.767 31.457-36.117 55.018-69.905 55.018h-115.602c-33.917 0-62.138-23.559-69.905-55.018h-48.933c-22.137 0-40.001 19.159-40.001 42.85v356.645c0 23.69 17.865 42.85 40.001 42.85h216.318c-9.579-19.807-14.887-41.943-14.887-65.375-0.13-19.289 3.495-37.67 10.098-54.629zM386.559 430.444h219.036v28.869h-219.036v-28.869zM386.559 517.049h219.036v28.869h-219.036v-28.869z" fill="#1296db" p-id="5783"></path></svg>